<?xml version="1.0" encoding="UTF-8"?>
<svg xmlns="http://www.w3.org/2000/svg" 
     xmlns:xlink="http://www.w3.org/1999/xlink"
     width="1200" height="1820" 
     viewBox="0 0 1200 1820">
  <defs>
    <radialGradient id="leafGradient">
      <stop offset="0%" style="stop-color:#22c55e;stop-opacity:1" />
      <stop offset="100%" style="stop-color:#16a34a;stop-opacity:0.8" />
    </radialGradient>
    <radialGradient id="mergeGradient">
      <stop offset="0%" style="stop-color:#a78bfa;stop-opacity:1" />
      <stop offset="100%" style="stop-color:#7c3aed;stop-opacity:0.8" />
    </radialGradient>
    <radialGradient id="forkGradient">
      <stop offset="0%" style="stop-color:#fb923c;stop-opacity:1" />
      <stop offset="100%" style="stop-color:#ea580c;stop-opacity:0.8" />
    </radialGradient>
    <radialGradient id="tagGradient">
      <stop offset="0%" style="stop-color:#38bdf8;stop-opacity:1" />
      <stop offset="100%" style="stop-color:#0284c7;stop-opacity:0.8" />
    </radialGradient>
    <style>
      .branch-line { stroke: #64748b; stroke-width: 2; fill: none; opacity: 0.7; }
      .trunk-line { stroke: #22c55e; stroke-width: 2.5; fill: none; opacity: 0.6; }
      .commit-leaf { cursor: pointer; }
      .commit-leaf:hover { filter: brightness(1.5); }
      .branch-label { font-family: sans-serif; font-size: 12px; font-weight: bold; fill: #0f172a; }
    </style>
  </defs>
  
  <rect width="1200" height="1820" fill="#f8fafc"/>
  <defs>
    <pattern id="grid" width="100" height="100" patternUnits="userSpaceOnUse">
      <path d="M 100 0 L 0 0 0 100" fill="none" stroke="#e2e8f0" stroke-width="0.5" opacity="0.3"/>
    </pattern>
  </defs>
  <rect width="1200" height="1820" fill="url(#grid)"/>
  
  <!-- Branch connection lines -->
  <g id="branches">
    <line class="trunk-line" x1="600" y1="60" x2="600" y2="100"/>
    <line class="trunk-line" x1="600" y1="100" x2="600" y2="140"/>
    <line class="trunk-line" x1="600" y1="140" x2="600" y2="180"/>
    <line class="trunk-line" x1="600" y1="180" x2="600" y2="220"/>
    <line class="trunk-line" x1="600" y1="220" x2="600" y2="260"/>
    <line class="trunk-line" x1="600" y1="260" x2="600" y2="300"/>
    <path class="branch-line" d="M 600 260 C 600 292, 720 308, 720 340"/>
    <line class="trunk-line" x1="600" y1="300" x2="600" y2="420"/>
    <path class="branch-line" d="M 720 340 C 720 372, 600 388, 600 420"/>
    <line class="trunk-line" x1="600" y1="420" x2="600" y2="460"/>
    <line class="trunk-line" x1="600" y1="460" x2="600" y2="500"/>
    <line class="trunk-line" x1="600" y1="500" x2="600" y2="540"/>
    <line class="trunk-line" x1="600" y1="540" x2="600" y2="580"/>
    <line class="trunk-line" x1="600" y1="580" x2="600" y2="620"/>
    <path class="branch-line" d="M 600 580 C 600 612, 480 628, 480 660"/>
    <line class="trunk-line" x1="600" y1="620" x2="600" y2="740"/>
    <path class="branch-line" d="M 480 660 C 480 692, 600 708, 600 740"/>
    <line class="trunk-line" x1="600" y1="740" x2="600" y2="780"/>
    <line class="trunk-line" x1="600" y1="780" x2="600" y2="820"/>
    <line class="trunk-line" x1="600" y1="820" x2="600" y2="860"/>
    <line class="trunk-line" x1="600" y1="860" x2="600" y2="900"/>
    <line class="trunk-line" x1="600" y1="900" x2="600" y2="940"/>
    <path class="branch-line" d="M 600 900 C 600 932, 840 948, 840 980"/>
    <line class="trunk-line" x1="600" y1="940" x2="600" y2="1060"/>
    <path class="branch-line" d="M 840 980 C 840 1012, 600 1028, 600 1060"/>
    <line class="trunk-line" x1="600" y1="1060" x2="600" y2="1100"/>
    <line class="trunk-line" x1="600" y1="1100" x2="600" y2="1140"/>
    <line class="trunk-line" x1="600" y1="1140" x2="600" y2="1180"/>
    <line class="trunk-line" x1="600" y1="1180" x2="600" y2="1220"/>
    <line class="trunk-line" x1="600" y1="1220" x2="600" y2="1340"/>
    <path class="branch-line" d="M 600 1220 C 600 1236, 360 1244, 360 1260"/>
    <path class="branch-line" d="M 360 1260 C 360 1292, 600 1308, 600 1340"/>
    <line class="trunk-line" x1="600" y1="1340" x2="600" y2="1380"/>
    <line class="trunk-line" x1="600" y1="1380" x2="600" y2="1420"/>
    <line class="trunk-line" x1="600" y1="1420" x2="600" y2="1460"/>
    <path class="branch-line" d="M 600 1420 C 600 1452, 960 1468, 960 1500"/>
    <line class="trunk-line" x1="600" y1="1460" x2="600" y2="1580"/>
    <path class="branch-line" d="M 960 1500 C 960 1532, 600 1548, 600 1580"/>
    <line class="trunk-line" x1="600" y1="1580" x2="600" y2="1700"/>
    <path class="branch-line" d="M 240 1620 C 240 1652, 600 1668, 600 1700"/>
  </g>
  <!-- Commit nodes -->
  <g id="commits">
    <circle class="commit-leaf" cx="600" cy="60" r="6" fill="url(#leafGradient)" stroke="#16a34a" stroke-width="1.5"><title>fe7dc75: chore: update 1 submodule(s) to latest</title></circle>
    <circle class="commit-leaf" cx="600" cy="100" r="6" fill="url(#leafGradient)" stroke="#16a34a" stroke-width="1.5"><title>e45cc9e: chore: update git tree visualisation</title></circle>
    <circle class="commit-leaf" cx="600" cy="140" r="6" fill="url(#leafGradient)" stroke="#16a34a" stroke-width="1.5"><title>5895590: chore: update git tree visualisation</title></circle>
    <circle class="commit-leaf" cx="600" cy="180" r="6" fill="url(#leafGradient)" stroke="#16a34a" stroke-width="1.5"><title>f3ed044: chore: update git tree visualisation</title></circle>
    <circle class="commit-leaf" cx="600" cy="220" r="6" fill="url(#leafGradient)" stroke="#16a34a" stroke-width="1.5"><title>fefb7a3: chore: update git tree visualisation</title></circle>
    <circle class="commit-leaf" cx="600" cy="260" r="10" fill="url(#mergeGradient)" stroke="#7c3aed" stroke-width="1.5"><title>6d969cb: Merge pull request #5 from XAOSTECH:chore/update-submodules-20260803-025630</title></circle>
    <circle class="commit-leaf" cx="600" cy="300" r="6" fill="url(#leafGradient)" stroke="#16a34a" stroke-width="1.5"><title>495ce32: chore: update git tree visualisation</title></circle>
    <circle class="commit-leaf" cx="720" cy="340" r="6" fill="url(#leafGradient)" stroke="#16a34a" stroke-width="1.5"><title>65ce388: chore: update 1 submodule(s) to latest</title></circle>
    <circle class="commit-leaf" cx="600" cy="420" r="9" fill="url(#forkGradient)" stroke="#ea580c" stroke-width="1.5"><title>5fd0aa9: chore: update git tree visualisation</title></circle>
    <circle class="commit-leaf" cx="600" cy="460" r="6" fill="url(#leafGradient)" stroke="#16a34a" stroke-width="1.5"><title>5817bf3: chore: update git tree visualisation</title></circle>
    <circle class="commit-leaf" cx="600" cy="500" r="6" fill="url(#leafGradient)" stroke="#16a34a" stroke-width="1.5"><title>f8ed26d: chore: update git tree visualisation</title></circle>
    <circle class="commit-leaf" cx="600" cy="540" r="6" fill="url(#leafGradient)" stroke="#16a34a" stroke-width="1.5"><title>2e02918: chore: update git tree visualisation</title></circle>
    <circle class="commit-leaf" cx="600" cy="580" r="10" fill="url(#mergeGradient)" stroke="#7c3aed" stroke-width="1.5"><title>696ee86: Merge pull request #4 from XAOSTECH:chore/update-submodules-20260629-040850</title></circle>
    <circle class="commit-leaf" cx="600" cy="620" r="6" fill="url(#leafGradient)" stroke="#16a34a" stroke-width="1.5"><title>2bbc60e: chore: update git tree visualisation</title></circle>
    <circle class="commit-leaf" cx="480" cy="660" r="6" fill="url(#leafGradient)" stroke="#16a34a" stroke-width="1.5"><title>6f285b6: chore: update 1 submodule(s) to latest</title></circle>
    <circle class="commit-leaf" cx="600" cy="740" r="9" fill="url(#forkGradient)" stroke="#ea580c" stroke-width="1.5"><title>d0fa771: chore: update git tree visualisation</title></circle>
    <circle class="commit-leaf" cx="600" cy="780" r="6" fill="url(#leafGradient)" stroke="#16a34a" stroke-width="1.5"><title>1f4629c: chore: update git tree visualisation</title></circle>
    <circle class="commit-leaf" cx="600" cy="820" r="6" fill="url(#leafGradient)" stroke="#16a34a" stroke-width="1.5"><title>8d24d34: chore: update git tree visualisation</title></circle>
    <circle class="commit-leaf" cx="600" cy="860" r="6" fill="url(#leafGradient)" stroke="#16a34a" stroke-width="1.5"><title>1150b3a: chore: update git tree visualisation</title></circle>
    <circle class="commit-leaf" cx="600" cy="900" r="10" fill="url(#mergeGradient)" stroke="#7c3aed" stroke-width="1.5"><title>7872ed0: Merge pull request #3 from XAOSTECH:chore/update-submodules-20260525-040226</title></circle>
    <circle class="commit-leaf" cx="600" cy="940" r="6" fill="url(#leafGradient)" stroke="#16a34a" stroke-width="1.5"><title>5febb9b: chore: update git tree visualisation</title></circle>
    <circle class="commit-leaf" cx="840" cy="980" r="6" fill="url(#leafGradient)" stroke="#16a34a" stroke-width="1.5"><title>f44f95d: chore: update 1 submodule(s) to latest</title></circle>
    <circle class="commit-leaf" cx="600" cy="1060" r="9" fill="url(#forkGradient)" stroke="#ea580c" stroke-width="1.5"><title>23a8138: chore: update git tree visualisation</title></circle>
    <circle class="commit-leaf" cx="600" cy="1100" r="6" fill="url(#leafGradient)" stroke="#16a34a" stroke-width="1.5"><title>3bd440d: chore: update git tree visualisation</title></circle>
    <circle class="commit-leaf" cx="600" cy="1140" r="6" fill="url(#leafGradient)" stroke="#16a34a" stroke-width="1.5"><title>843b44b: chore: update git tree visualisation</title></circle>
    <circle class="commit-leaf" cx="600" cy="1180" r="6" fill="url(#leafGradient)" stroke="#16a34a" stroke-width="1.5"><title>556bd2f: chore: update git tree visualisation</title></circle>
    <circle class="commit-leaf" cx="600" cy="1220" r="10" fill="url(#mergeGradient)" stroke="#7c3aed" stroke-width="1.5"><title>065bf73: Merge pull request #2 from XAOSTECH:chore/update-submodules-20260420-025444</title></circle>
    <circle class="commit-leaf" cx="360" cy="1260" r="6" fill="url(#leafGradient)" stroke="#16a34a" stroke-width="1.5"><title>768e612: chore: update 1 submodule(s) to latest</title></circle>
    <circle class="commit-leaf" cx="600" cy="1340" r="9" fill="url(#forkGradient)" stroke="#ea580c" stroke-width="1.5"><title>8221727: chore: update git tree visualisation</title></circle>
    <circle class="commit-leaf" cx="600" cy="1380" r="6" fill="url(#leafGradient)" stroke="#16a34a" stroke-width="1.5"><title>0d47d1c: chore: update git tree visualisation</title></circle>
    <circle class="commit-leaf" cx="600" cy="1420" r="10" fill="url(#mergeGradient)" stroke="#7c3aed" stroke-width="1.5"><title>e522ded: Merge pull request #1 from XAOSTECH:chore/update-submodules-20260330-024316</title></circle>
    <circle class="commit-leaf" cx="600" cy="1460" r="6" fill="url(#leafGradient)" stroke="#16a34a" stroke-width="1.5"><title>f388651: chore: update git tree visualisation</title></circle>
    <circle class="commit-leaf" cx="960" cy="1500" r="6" fill="url(#leafGradient)" stroke="#16a34a" stroke-width="1.5"><title>959bc69: chore: update 1 submodule(s) to latest</title></circle>
    <circle class="commit-leaf" cx="600" cy="1580" r="9" fill="url(#forkGradient)" stroke="#ea580c" stroke-width="1.5"><title>41dcbba: chore(dc-init): load workflows,actions</title></circle>
    <circle class="commit-leaf" cx="240" cy="1620" r="6" fill="url(#leafGradient)" stroke="#16a34a" stroke-width="1.5"><title>3d0401a: chore(dc-init): load workflows,actions</title></circle>
    <circle class="commit-leaf" cx="600" cy="1700" r="9" fill="url(#forkGradient)" stroke="#ea580c" stroke-width="1.5"><title>d2fc99c: Initial commit</title></circle>
  </g>
  
  <!-- Legend -->
  <g id="legend" transform="translate(20, 20)">
    <rect width="200" height="110" fill="white" stroke="#cbd5e1" stroke-width="1" rx="4"/>
    <circle cx="20" cy="25" r="5" fill="url(#leafGradient)" stroke="#16a34a"/>
    <text x="32" y="30" class="branch-label" font-size="12">Regular Commit</text>
    <circle cx="20" cy="50" r="6" fill="url(#mergeGradient)" stroke="#7c3aed"/>
    <text x="32" y="55" class="branch-label" font-size="12">Merge Commit</text>
    <circle cx="20" cy="75" r="6" fill="url(#forkGradient)" stroke="#ea580c"/>
    <text x="32" y="80" class="branch-label" font-size="12">Fork Point</text>
    <circle cx="20" cy="100" r="6" fill="url(#tagGradient)" stroke="#0284c7"/>
    <text x="32" y="105" class="branch-label" font-size="12">Tagged</text>
  </g>
  
  <!-- Repository info -->
  <g id="info" transform="translate(20, 1780)">
    <text x="0" y="0" class="branch-label" font-size="12" fill="#666">
      Repository: win-tools
    </text>
    <text x="0" y="20" class="branch-label" font-size="10" fill="#999">
      Generated: 2026-09-14 03:54:46 UTC
    </text>
  </g>
</svg>
