<?xml version="1.0" encoding="UTF-8"?>
<svg xmlns="http://www.w3.org/2000/svg"
     width="300" height="540"
     viewBox="460 40 400 720">
  <style>
    @keyframes sway {
      0%   { transform: translateX(0); }
      25%  { transform: translateX(3px); }
      50%  { transform: translateX(-2px); }
      75%  { transform: translateX(4px); }
      100% { transform: translateX(0); }
    }
    .mini-node { animation: sway 4s ease-in-out infinite; }
    .mini-line { stroke-width: 1.5; fill: none; opacity: 0.5; }
  </style>
  <rect width="100%" height="100%" fill="#0a0a1a" rx="6"/>
  <g class="mini-node">
    <line class="mini-line" stroke="#4ade80" x1="600" y1="60" x2="600" y2="100"/>
    <line class="mini-line" stroke="#4ade80" x1="600" y1="100" x2="600" y2="140"/>
    <line class="mini-line" stroke="#4ade80" x1="600" y1="140" x2="600" y2="180"/>
    <line class="mini-line" stroke="#4ade80" x1="600" y1="180" x2="600" y2="220"/>
    <line class="mini-line" stroke="#4ade80" x1="600" y1="220" x2="600" y2="260"/>
    <line class="mini-line" stroke="#4ade80" x1="600" y1="260" x2="600" y2="380"/>
    <path class="mini-line" stroke="#64748b" d="M 600 260 C 600 276, 720 284, 720 300"/>
    <path class="mini-line" stroke="#64748b" d="M 720 300 C 720 332, 600 348, 600 380"/>
    <line class="mini-line" stroke="#4ade80" x1="600" y1="380" x2="600" y2="420"/>
    <line class="mini-line" stroke="#4ade80" x1="600" y1="420" x2="600" y2="460"/>
    <line class="mini-line" stroke="#4ade80" x1="600" y1="460" x2="600" y2="500"/>
    <path class="mini-line" stroke="#64748b" d="M 600 460 C 600 492, 480 508, 480 540"/>
    <line class="mini-line" stroke="#4ade80" x1="600" y1="500" x2="600" y2="620"/>
    <path class="mini-line" stroke="#64748b" d="M 480 540 C 480 572, 600 588, 600 620"/>
    <line class="mini-line" stroke="#4ade80" x1="600" y1="620" x2="600" y2="740"/>
    <path class="mini-line" stroke="#64748b" d="M 840 660 C 840 692, 600 708, 600 740"/>
    <circle cx="600" cy="60" r="4" fill="#4ade80" opacity="0.9"/>
    <circle cx="600" cy="100" r="4" fill="#4ade80" opacity="0.9"/>
    <circle cx="600" cy="140" r="4" fill="#4ade80" opacity="0.9"/>
    <circle cx="600" cy="180" r="4" fill="#4ade80" opacity="0.9"/>
    <circle cx="600" cy="220" r="4" fill="#4ade80" opacity="0.9"/>
    <circle cx="600" cy="260" r="7" fill="#c084fc" opacity="0.9"/>
    <circle cx="720" cy="300" r="4" fill="#4ade80" opacity="0.9"/>
    <circle cx="600" cy="380" r="6" fill="#fb923c" opacity="0.9"/>
    <circle cx="600" cy="420" r="4" fill="#4ade80" opacity="0.9"/>
    <circle cx="600" cy="460" r="7" fill="#c084fc" opacity="0.9"/>
    <circle cx="600" cy="500" r="4" fill="#4ade80" opacity="0.9"/>
    <circle cx="480" cy="540" r="4" fill="#4ade80" opacity="0.9"/>
    <circle cx="600" cy="620" r="6" fill="#fb923c" opacity="0.9"/>
    <circle cx="840" cy="660" r="4" fill="#4ade80" opacity="0.9"/>
    <circle cx="600" cy="740" r="6" fill="#fb923c" opacity="0.9"/>
  </g>
</svg>
